<svg width="442" height="182" viewBox="0 0 442 182" fill="none" xmlns="http://www.w3.org/2000/svg">
<path d="M36.516 0.716064V35.7331H28.014V12.7901L21.081 22.0121H15.437L8.505 12.7901V35.7331H0V0.716064H8.792L18.223 13.5071L27.727 0.716064H36.516Z" fill="#AFCC46"/>
<path d="M62.243 7.862C59.53 7.862 57.217 8.863 55.311 10.862C53.454 12.862 52.524 15.295 52.524 18.155C52.524 21.01 53.454 23.465 55.311 25.512C57.17 27.513 59.481 28.514 62.243 28.514C65.007 28.514 67.318 27.513 69.178 25.512C71.032 23.465 71.964 21.01 71.964 18.155C71.964 15.295 71.032 12.862 69.178 10.862C67.318 8.863 65.007 7.862 62.243 7.862ZM80.611 18.155C80.611 23.25 78.821 27.585 75.24 31.159C71.706 34.683 67.387 36.445 62.281 36.445C57.265 36.445 52.947 34.683 49.319 31.159C45.785 27.538 44.02 23.203 44.02 18.155C44.02 13.101 45.785 8.816 49.319 5.289C52.947 1.762 57.265 0 62.281 0C67.387 0 71.706 1.762 75.24 5.289C78.821 8.816 80.611 13.101 80.611 18.155Z" fill="#AFCC46"/>
<path d="M114.34 25.87V33.874C111.384 35.589 107.908 36.445 103.907 36.445C98.6671 36.445 94.2841 34.684 90.7571 31.159C87.2791 27.681 85.5391 23.368 85.5391 18.224C85.5391 13.127 87.3031 8.81698 90.8281 5.28898C94.3531 1.76198 98.7361 0.000976562 103.979 0.000976562C105.74 0.000976562 107.432 0.213977 109.051 0.643977C110.67 1.07298 111.862 1.50198 112.626 1.93098L113.768 2.57398V10.505C110.957 8.78998 107.859 7.93398 104.479 7.93398C101.475 7.93398 99.0231 8.93298 97.1171 10.934C95.1651 12.985 94.1861 15.413 94.1861 18.224C94.1861 21.035 95.1651 23.488 97.1171 25.586C99.0231 27.585 101.501 28.586 104.55 28.586C106.027 28.586 107.588 28.359 109.231 27.907C110.875 27.454 112.147 27.013 113.052 26.584L114.34 25.87Z" fill="#AFCC46"/>
<path d="M130.846 0.716064V13.8651L141.566 0.716064H152.643L138.352 17.1521L153.857 35.7331H142.78L130.846 21.0821V35.7331H122.199V0.716064H130.846Z" fill="#AFCC46"/>
<path d="M173.511 7.862C170.796 7.862 168.485 8.863 166.577 10.862C164.722 12.862 163.79 15.295 163.79 18.155C163.79 21.01 164.722 23.465 166.577 25.512C168.438 27.513 170.749 28.514 173.511 28.514C176.274 28.514 178.587 27.513 180.443 25.512C182.301 23.465 183.232 21.01 183.232 18.155C183.232 15.295 182.301 12.862 180.443 10.862C178.587 8.863 176.274 7.862 173.511 7.862ZM191.877 18.155C191.877 23.25 190.089 27.585 186.506 31.159C182.972 34.683 178.655 36.445 173.547 36.445C168.532 36.445 164.215 34.683 160.586 31.159C157.051 27.538 155.288 23.203 155.288 18.155C155.288 13.101 157.051 8.816 160.586 5.289C164.215 1.762 168.532 0 173.547 0C178.655 0 182.972 1.762 186.506 5.289C190.089 8.816 191.877 13.101 191.877 18.155Z" fill="#AFCC46"/>
<path d="M220.749 24.871C220.749 22.727 218.912 21.653 215.244 21.653H207.741V27.871H215.961C217.438 27.871 218.6 27.598 219.461 27.048C220.317 26.504 220.749 25.775 220.749 24.871ZM207.741 14.221H214.958C216.435 14.221 217.589 13.95 218.424 13.4C219.258 12.853 219.677 12.148 219.677 11.292C219.677 10.389 219.294 9.68104 218.532 9.18304C217.769 8.68304 216.744 8.43304 215.459 8.43304H207.741V14.221ZM228.322 10.791C228.322 11.983 228.068 13.101 227.563 14.151C227.058 15.199 226.545 15.962 226.018 16.436L225.224 17.152C225.553 17.343 225.956 17.627 226.425 18.008C226.896 18.391 227.532 19.271 228.335 20.653C229.136 22.036 229.538 23.583 229.538 25.296C229.538 28.394 228.346 30.92 225.964 32.876C223.629 34.779 220.604 35.733 216.888 35.733H199.307V0.717041H214.853C219.056 0.717041 222.353 1.57304 224.739 3.28804C227.127 5.00204 228.322 7.50704 228.322 10.791Z" fill="#AFCC46"/>
<path d="M263.694 25.87V33.874C260.743 35.589 257.264 36.445 253.261 36.445C248.021 36.445 243.638 34.684 240.113 31.159C236.637 27.681 234.895 23.368 234.895 18.224C234.895 13.127 236.659 8.81698 240.182 5.28898C243.709 1.76198 248.092 0.000976562 253.334 0.000976562C255.095 0.000976562 256.784 0.213977 258.41 0.643977C260.026 1.07298 261.218 1.50198 261.981 1.93098L263.122 2.57398V10.505C260.312 8.78998 257.215 7.93398 253.832 7.93398C250.833 7.93398 248.377 8.93298 246.475 10.934C244.521 12.985 243.544 15.413 243.544 18.224C243.544 21.035 244.521 23.488 246.475 25.586C248.377 27.585 250.855 28.586 253.906 28.586C255.38 28.586 256.942 28.359 258.585 27.907C260.228 27.454 261.505 27.013 262.411 26.584L263.694 25.87Z" fill="#AFCC46"/>
<path d="M280.205 0.716064V13.8651L290.922 0.716064H302L287.707 17.1521L303.214 35.7331H292.139L280.205 21.0821V35.7331H271.556V0.716064H280.205Z" fill="#AFCC46"/>
<path d="M308.93 35.733V0.717041H317.577V22.227L318.715 19.509L330.939 0.717041H340.014V35.733H331.369V14.152L330.224 16.939L317.935 35.733H308.93Z" fill="#AFCC46"/>
<path d="M365.386 7.433C363.097 7.433 361.134 8.183 359.49 9.681C357.847 11.185 356.74 13.101 356.165 15.435H373.388C373.388 13.101 372.554 11.174 370.888 9.651C369.269 8.171 367.433 7.433 365.386 7.433ZM380.748 21.653H356.381C357.097 23.777 358.323 25.485 360.062 26.781C361.799 28.08 363.883 28.728 366.314 28.728C368.075 28.728 369.85 28.489 371.638 28.014C373.424 27.538 374.769 27.062 375.676 26.583L377.033 25.87V33.994C374.127 35.627 370.531 36.445 366.242 36.445C360.667 36.445 356.141 34.661 352.666 31.085C349.187 27.562 347.446 23.297 347.446 18.295C347.446 13.151 349.162 8.817 352.593 5.289C356.022 1.762 360.169 0 365.026 0C369.694 0 373.557 1.524 376.601 4.573C379.749 7.575 381.321 11.387 381.321 16.009C381.321 16.818 381.272 17.699 381.177 18.651C381.085 19.607 380.988 20.345 380.892 20.868L380.748 21.653Z" fill="#AFCC46"/>
<path d="M40.877 64.105V99.12H0V64.105H8.647V91.402H16.151V64.105H24.582V91.402H32.23V64.105H40.877Z" fill="#AFCC46"/>
<path d="M59.4561 64.105V77.256L70.1761 64.105H81.2541L66.9601 80.54L82.4681 99.12H71.3901L59.4561 84.47V99.12H50.8091V64.105H59.4561Z" fill="#AFCC46"/>
<path d="M102.121 71.2499C99.4059 71.2499 97.0919 72.2489 95.1869 74.2499C93.3299 76.2509 92.4019 78.6819 92.4019 81.5399C92.4019 84.3999 93.3299 86.8489 95.1869 88.8989C97.0459 90.9009 99.3569 91.9019 102.121 91.9019C104.885 91.9019 107.194 90.9009 109.053 88.8989C110.91 86.8489 111.84 84.3999 111.84 81.5399C111.84 78.6819 110.91 76.2509 109.053 74.2499C107.194 72.2489 104.885 71.2499 102.121 71.2499ZM120.489 81.5399C120.489 86.6379 118.698 90.9729 115.116 94.5459C111.582 98.0709 107.263 99.8379 102.154 99.8379C97.1419 99.8379 92.8249 98.0709 89.1949 94.5459C85.6639 90.9259 83.8979 86.5909 83.8979 81.5399C83.8979 76.4919 85.6639 72.2039 89.1949 68.6769C92.8249 65.1539 97.1419 63.3879 102.154 63.3879C107.263 63.3879 111.582 65.1539 115.116 68.6769C118.698 72.2039 120.489 76.4919 120.489 81.5399Z" fill="#AFCC46"/>
<path d="M129.848 89.618L132.35 64.105H157.15V99.119H148.645V71.821H139.783L137.783 91.975L130.849 101.407L124.346 97.117L129.848 89.618Z" fill="#AFCC46"/>
<path d="M199.31 64.104H207.957V99.119H199.31V64.104ZM175.655 84.114V91.401H182.3C183.539 91.401 184.575 91.041 185.409 90.321C186.241 89.6 186.659 88.708 186.659 87.648C186.659 86.738 186.232 85.917 185.374 85.196C184.515 84.474 183.49 84.114 182.3 84.114H175.655ZM167.151 99.119V64.104H175.656V76.394H182.183C185.911 76.394 189.044 77.448 191.577 79.547C194.064 81.605 195.309 84.28 195.309 87.576C195.309 89.251 194.998 90.792 194.375 92.2C193.755 93.61 192.871 94.829 191.726 95.856C190.579 96.886 189.204 97.684 187.605 98.261C186.004 98.836 184.227 99.119 182.268 99.119H167.151Z" fill="#AFCC46"/>
<path d="M0 162.507V127.495H8.647V149.003L9.786 146.286L22.013 127.495H31.087V162.507H22.44V140.928L21.297 143.713L9.005 162.507H0Z" fill="#AFCC46"/>
<path d="M67.318 152.646V160.652C64.364 162.365 60.886 163.221 56.885 163.221C51.643 163.221 47.26 161.461 43.733 157.932C40.256 154.456 38.519 150.141 38.519 144.998C38.519 139.905 40.281 135.595 43.808 132.065C47.333 128.54 51.714 126.779 56.954 126.779C58.718 126.779 60.41 126.99 62.029 127.419C63.648 127.849 64.84 128.275 65.603 128.707L66.746 129.352V137.281C63.935 135.568 60.837 134.707 57.456 134.707C54.454 134.707 51.999 135.708 50.095 137.712C48.14 139.758 47.164 142.191 47.164 144.998C47.164 147.813 48.14 150.264 50.095 152.361C51.999 154.358 54.479 155.364 57.528 155.364C59.002 155.364 60.564 155.137 62.207 154.681C63.851 154.232 65.125 153.789 66.032 153.358L67.318 152.646Z" fill="#AFCC46"/>
<path d="M83.8252 127.495V140.643L94.5472 127.495H105.62L91.3292 143.928L106.837 162.507H95.7592L83.8252 147.858V162.507H75.1802V127.495H83.8252Z" fill="#AFCC46"/>
<path d="M135.995 127.495H145.285L131.207 169.869L122.916 181.231L116.771 176.585L123.13 167.084L124.773 162.507H121.199L111.552 135.996L107.548 132.137L112.265 126.275L118.557 130.994L126.988 154.646H127.275L135.995 127.495Z" fill="#AFCC46"/>
<path d="M176.941 152.646V160.652C173.988 162.365 170.507 163.221 166.506 163.221C161.266 163.221 156.883 161.461 153.358 157.932C149.882 154.456 148.142 150.141 148.142 144.998C148.142 139.905 149.902 135.595 153.429 132.065C156.954 128.54 161.335 126.779 166.578 126.779C168.341 126.779 170.033 126.99 171.65 127.419C173.269 127.849 174.464 128.275 175.224 128.707L176.37 129.352V137.281C173.558 135.568 170.463 134.707 167.08 134.707C164.078 134.707 161.622 135.708 159.716 137.712C157.766 139.758 156.789 142.191 156.789 144.998C156.789 147.813 157.766 150.264 159.716 152.361C161.622 154.358 164.1 155.364 167.151 155.364C168.626 155.364 170.187 155.137 171.833 154.681C173.476 154.232 174.75 153.789 175.656 153.358L176.941 152.646Z" fill="#AFCC46"/>
<path d="M211.099 152.646V160.652C208.143 162.365 204.667 163.221 200.666 163.221C195.424 163.221 191.043 161.461 187.516 157.932C184.039 154.456 182.298 150.141 182.298 144.998C182.298 139.905 184.062 135.595 187.587 132.065C191.112 128.54 195.495 126.779 200.737 126.779C202.496 126.779 204.191 126.99 205.81 127.419C207.429 127.849 208.621 128.275 209.383 128.707L210.527 129.352V137.281C207.716 135.568 204.618 134.707 201.238 134.707C198.235 134.707 195.782 135.708 193.874 137.712C191.923 139.758 190.947 142.191 190.947 144.998C190.947 147.813 191.923 150.264 193.874 152.361C195.782 154.358 198.257 155.364 201.307 155.364C202.785 155.364 204.346 155.137 205.99 154.681C207.633 154.232 208.906 153.789 209.81 153.358L211.099 152.646Z" fill="#AFCC46"/>
<path d="M244.402 135.21H234.111V162.507H225.606V135.21H215.387V127.495H244.402V135.21Z" fill="#AFCC46"/>
<path d="M272.27 151.646C272.27 149.502 270.437 148.43 266.77 148.43H259.267V154.646H267.485C268.96 154.646 270.128 154.374 270.984 153.825C271.84 153.278 272.27 152.553 272.27 151.646ZM259.267 140.997H266.482C267.959 140.997 269.114 140.725 269.948 140.177C270.78 139.627 271.198 138.924 271.198 138.068C271.198 137.162 270.818 136.46 270.054 135.96C269.294 135.459 268.268 135.21 266.984 135.21H259.267V140.997ZM279.845 137.57C279.845 138.76 279.596 139.878 279.091 140.928C278.584 141.976 278.069 142.736 277.539 143.217L276.749 143.928C277.076 144.12 277.479 144.406 277.948 144.787C278.419 145.167 279.058 146.048 279.858 147.428C280.659 148.814 281.062 150.358 281.062 152.075C281.062 155.173 279.869 157.697 277.487 159.648C275.154 161.555 272.128 162.507 268.41 162.507H250.834V127.495H266.379C270.582 127.495 273.875 128.347 276.262 130.066C278.652 131.779 279.845 134.281 279.845 137.57Z" fill="#AFCC46"/>
<path d="M428.029 1.11897C426.01 0.0499651 422.441 1.09397 420.526 4.43696C418.685 7.65796 416.835 12.635 420.251 21.939C421.272 24.73 424.073 31.053 424.728 37.569C424.236 42.79 423.44 47.951 422.363 52.945C422.006 52.23 421.716 51.509 421.501 50.786C419.948 45.543 416.666 41.363 411.473 38.009C408.085 35.82 405.007 36.012 403.024 38.542C401.597 40.364 400.916 43.28 401.104 46.76C401.617 56.003 410.337 62.079 413 63.724C414.948 64.913 416.672 66.345 418.135 67.98C414.896 77.277 410.589 86.078 405.316 94.174C404.842 88.822 401.461 81.613 397.004 79.097C394.845 77.88 392.564 77.834 390.409 78.956C389.385 79.489 388.507 80.217 387.799 81.125C383.265 86.909 386.493 98.182 389.577 102.874C391.33 105.488 392.4 108.103 393.015 109.964C386.569 116.941 379.221 123.178 371.144 128.537C371.76 125.627 372.112 121.536 370.573 117.891C368.812 113.717 366.268 111.208 363.417 110.827C359.879 110.357 356.307 113.292 354.189 118.447C351.984 123.807 354.314 133.486 355.575 137.357C343.16 143.321 330.237 147.336 316.092 149.63C314.465 149.91 313.148 151.552 313.668 152.664C313.883 153.127 314.537 154.539 317.127 154.151C326.166 152.797 335.244 150.564 344.125 147.509C346.409 151.142 350.687 157.106 355.764 160.092C361.262 163.337 369.813 163.852 373.299 159.4C374.49 157.884 374.953 155.968 374.668 153.71C373.913 147.593 365.037 144.233 356.815 142.43C366.901 137.825 376.187 132.106 384.465 125.409C388.175 128.575 394.807 133.788 400.943 136.325C407.397 138.991 416.251 138.973 419.9 134.321C421.286 132.552 421.755 130.332 421.292 127.72C419.715 118.61 406.909 117.092 402.088 116.52C401.577 116.459 401.167 116.414 400.892 116.365C399.462 116.13 396.966 116.089 394.705 116.101C396.375 114.401 398.034 112.603 399.697 110.688L400.121 110.335L400.432 109.832C404.808 104.702 408.728 99.251 412.158 93.525C414.833 94.64 422.73 97.446 429.964 95.223C433.724 94.069 436.989 91.907 439.156 89.143V89.14C441.548 86.089 442.36 82.656 441.33 79.951C440.481 77.728 438.437 76.224 435.583 75.717C429.821 74.69 424.482 75.268 420.277 77.336C425.077 65.774 428.433 50.461 429.723 37.695C434.53 29.771 435.964 24.264 435.854 16.645C435.742 8.84197 431.989 3.21897 428.029 1.11897Z" fill="#AFCC46"/>
</svg>
