<svg width="129" height="163" viewBox="0 0 129 163" fill="none" xmlns="http://www.w3.org/2000/svg">
<path d="M115.029 1.11897C113.01 0.0499651 109.441 1.09397 107.526 4.43696C105.685 7.65796 103.835 12.635 107.251 21.939C108.272 24.73 111.073 31.053 111.728 37.569C111.236 42.79 110.44 47.951 109.363 52.945C109.006 52.23 108.716 51.509 108.501 50.786C106.948 45.543 103.666 41.363 98.4729 38.009C95.0849 35.82 92.0069 36.012 90.0239 38.542C88.5969 40.364 87.9159 43.28 88.1039 46.76C88.6169 56.003 97.3369 62.079 99.9999 63.724C101.948 64.913 103.672 66.345 105.135 67.98C101.896 77.277 97.5889 86.078 92.3159 94.174C91.8419 88.822 88.4609 81.613 84.0039 79.097C81.8449 77.88 79.5639 77.834 77.4089 78.956C76.3849 79.489 75.5069 80.217 74.7989 81.125C70.2649 86.909 73.4929 98.182 76.5769 102.874C78.3299 105.488 79.3999 108.103 80.0149 109.964C73.5689 116.941 66.2209 123.178 58.1439 128.537C58.7599 125.627 59.1119 121.536 57.5729 117.891C55.8119 113.717 53.2679 111.208 50.4169 110.827C46.8789 110.357 43.3069 113.292 41.1889 118.447C38.9839 123.807 41.3139 133.486 42.5749 137.357C30.1599 143.321 17.2369 147.336 3.09191 149.63C1.46491 149.91 0.147895 151.552 0.667895 152.664C0.882895 153.127 1.53691 154.539 4.12691 154.151C13.1659 152.797 22.2439 150.564 31.1249 147.509C33.4089 151.142 37.6869 157.106 42.7639 160.092C48.2619 163.337 56.8129 163.852 60.2989 159.4C61.4899 157.884 61.9529 155.968 61.6679 153.71C60.9129 147.593 52.0369 144.233 43.8149 142.43C53.9009 137.825 63.1869 132.106 71.4649 125.409C75.1749 128.575 81.8069 133.788 87.9429 136.325C94.3969 138.991 103.251 138.973 106.9 134.321C108.286 132.552 108.755 130.332 108.292 127.72C106.715 118.61 93.9089 117.092 89.0879 116.52C88.5769 116.459 88.1669 116.414 87.8919 116.365C86.4619 116.13 83.9659 116.089 81.7049 116.101C83.3749 114.401 85.0339 112.603 86.6969 110.688L87.1209 110.335L87.4319 109.832C91.8079 104.702 95.7279 99.251 99.1579 93.525C101.833 94.64 109.73 97.446 116.964 95.223C120.724 94.069 123.989 91.907 126.156 89.143V89.14C128.548 86.089 129.36 82.656 128.33 79.951C127.481 77.728 125.437 76.224 122.583 75.717C116.821 74.69 111.482 75.268 107.277 77.336C112.077 65.774 115.433 50.461 116.723 37.695C121.53 29.771 122.964 24.264 122.854 16.645C122.742 8.84197 118.989 3.21897 115.029 1.11897Z" fill="#AFCC46"/>
</svg>
