<svg width="20" height="20" viewBox="0 0 20 20" fill="none" xmlns="http://www.w3.org/2000/svg">
<mask id="mask0_233_642" style="mask-type:alpha" maskUnits="userSpaceOnUse" x="0" y="0" width="20" height="20">
<path d="M16.6569 17.5055C21.0438 13.7157 20.0985 8.73064 19.4019 6.46043C18.7052 4.19009 17.2618 1.28987 11.5279 0.160807C5.79418 -0.965297 1.12753 4.09646 0.329109 6.83213C-0.466884 9.56847 0.323859 10.606 1.18743 14.0588C2.04939 17.513 6.82642 19.1363 8.92834 19.7824C11.0311 20.4281 14.201 19.6274 16.6569 17.5055Z" fill="#DEA5BA"/>
</mask>
<g mask="url(#mask0_233_642)">
<path d="M21.3333 -0.666626H-5.33337V21.4209H21.3333V-0.666626Z" fill="#A3C8D8"/>
<path d="M-5.33337 -0.666626V19.1519L-1.21268 21.4209H-0.802663L5.90362 -0.666626H-5.33337Z" fill="#6EB17E"/>
<mask id="mask1_233_642" style="mask-type:luminance" maskUnits="userSpaceOnUse" x="-6" y="-1" width="28" height="23">
<path d="M21.3333 -0.666626H-5.33337V21.4209H21.3333V-0.666626Z" fill="white"/>
</mask>
<g mask="url(#mask1_233_642)">
<path d="M15.6881 -0.429974C11.8987 -2.72668 8.66763 -2.43765 7.63143 -2.30639C4.90543 -1.95883 1.31483 -0.879085 -1.09953 5.50824C-3.51099 11.8949 1.34248 18.298 4.30411 19.7695C7.03504 21.1251 12.3389 20.728 14.0578 20.002C18.6901 18.0449 20.1475 12.36 20.4673 9.71767C20.7856 7.07289 19.4769 1.86699 15.6881 -0.429974Z" fill="#D9E5A6"/>
</g>
<mask id="mask2_233_642" style="mask-type:luminance" maskUnits="userSpaceOnUse" x="-6" y="-1" width="28" height="23">
<path d="M21.3333 -0.666626H-5.33337V21.4209H21.3333V-0.666626Z" fill="white"/>
</mask>
<g mask="url(#mask2_233_642)">
<path d="M6.33301 -2.08057C3.83897 -1.50706 0.946916 0.0939045 -1.09961 5.50824C-2.62424 9.54656 -1.24507 13.591 0.724421 16.3914L6.33301 -2.08057Z" fill="#354863"/>
</g>
<mask id="mask3_233_642" style="mask-type:luminance" maskUnits="userSpaceOnUse" x="-6" y="-1" width="28" height="23">
<path d="M21.3333 -0.666626H-5.33337V21.4209H21.3333V-0.666626Z" fill="white"/>
</mask>
<g mask="url(#mask3_233_642)">
<path d="M-1.08569 33.2386C-1.08569 33.2386 5.13722 26.2469 7.95085 23.7681C10.7645 21.2886 16.4855 14.3552 16.4855 14.3552L20.5127 8.88852L36.0949 -9.38501H46.6397L39.494 16.3913L32.166 52.2264H6.97236L3.25712 35.9087L-1.08569 33.2386Z" fill="#6EB17E"/>
</g>
<mask id="mask4_233_642" style="mask-type:luminance" maskUnits="userSpaceOnUse" x="-6" y="-1" width="28" height="23">
<path d="M21.3333 -0.666626H-5.33337V21.4209H21.3333V-0.666626Z" fill="white"/>
</mask>
<g mask="url(#mask4_233_642)">
<path d="M11.0795 20.5931C12.3468 20.4837 13.4369 20.2645 14.0576 20.0019C18.6901 18.0449 20.1475 12.36 20.4673 9.71771C20.498 9.46358 20.5133 9.18546 20.513 8.88867L16.4855 14.3552C16.4855 14.3552 13.7133 17.715 11.0795 20.5931Z" fill="#354863"/>
</g>
<mask id="mask5_233_642" style="mask-type:luminance" maskUnits="userSpaceOnUse" x="-6" y="-1" width="28" height="23">
<path d="M21.3333 -0.666626H-5.33337V21.4209H21.3333V-0.666626Z" fill="white"/>
</mask>
<g mask="url(#mask5_233_642)">
<path d="M-1.15446 22.844C0.00814819 18.5143 -1.12857 15.4217 -1.52911 14.4406C-2.58628 11.8597 -4.56739 8.62615 -11.2593 7.96315C-17.9508 7.30319 -22.7176 13.7738 -23.32 17.0715C-23.8742 20.1124 -22.0816 25.2091 -20.9353 26.7011C-17.8456 30.7221 -12.0737 30.6331 -9.48627 30.2416C-6.89689 29.8475 -2.31757 27.1744 -1.15446 22.844Z" fill="white"/>
</g>
</g>
</svg>
