<svg width="20" height="20" viewBox="0 0 20 20" fill="none" xmlns="http://www.w3.org/2000/svg">
<mask id="mask0_233_1195" style="mask-type:alpha" maskUnits="userSpaceOnUse" x="0" y="0" width="20" height="20">
<path d="M16.6569 17.5055C21.0438 13.7157 20.0985 8.73064 19.4019 6.46043C18.7052 4.19009 17.2618 1.28987 11.5279 0.160807C5.79418 -0.965297 1.12753 4.09646 0.329109 6.83213C-0.466884 9.56847 0.323859 10.606 1.18743 14.0588C2.04939 17.513 6.82642 19.1363 8.92834 19.7824C11.0311 20.4281 14.201 19.6274 16.6569 17.5055Z" fill="#DEA5BA"/>
</mask>
<g mask="url(#mask0_233_1195)">
<path d="M20.8889 -0.444336H-4.44446V20.4444H20.8889V-0.444336Z" fill="#D9E5A6"/>
<path d="M-4.44446 -0.444336V18.2987L-0.530036 20.4444H-0.1404L6.23057 -0.444336H-4.44446Z" fill="#AFCC46"/>
<mask id="mask1_233_1195" style="mask-type:luminance" maskUnits="userSpaceOnUse" x="-5" y="-1" width="26" height="22">
<path d="M20.8889 -0.444336H-4.44446V20.4444H20.8889V-0.444336Z" fill="white"/>
</mask>
<g mask="url(#mask1_233_1195)">
<path d="M15.5258 -0.220733C11.9261 -2.39281 8.85639 -2.11946 7.87212 -1.99532C5.28242 -1.66663 1.87135 -0.645473 -0.422288 5.39524C-2.71329 11.4352 1.8975 17.491 4.71117 18.8825C7.30543 20.1645 12.3442 19.789 13.977 19.1025C18.3778 17.2516 19.7622 11.8751 20.0661 9.37625C20.3685 6.87487 19.1252 1.95159 15.5258 -0.220733Z" fill="#F8F5C7"/>
</g>
<mask id="mask2_233_1195" style="mask-type:luminance" maskUnits="userSpaceOnUse" x="-5" y="-1" width="26" height="22">
<path d="M20.8889 -0.444336H-4.44446V20.4444H20.8889V-0.444336Z" fill="white"/>
</mask>
<g mask="url(#mask2_233_1195)">
<path d="M6.63859 -1.7821C4.26925 -1.23971 1.5218 0.274367 -0.422273 5.39489C-1.87067 9.21395 -0.560591 13.039 1.31043 15.6875L6.63859 -1.7821Z" fill="#95AF3D"/>
</g>
<mask id="mask3_233_1195" style="mask-type:luminance" maskUnits="userSpaceOnUse" x="-5" y="-1" width="26" height="22">
<path d="M20.8889 -0.444336H-4.44446V20.4444H20.8889V-0.444336Z" fill="white"/>
</mask>
<g mask="url(#mask3_233_1195)">
<path d="M-0.40918 31.6208C-0.40918 31.6208 5.50258 25.0086 8.17554 22.6642C10.8485 20.3194 16.2834 13.7621 16.2834 13.7621L20.1093 8.59222L34.9124 -8.6897H44.9299L38.1415 15.6877L31.18 49.5782H7.24608L3.71649 34.146L-0.40918 31.6208Z" fill="#AFCC46"/>
</g>
<mask id="mask4_233_1195" style="mask-type:luminance" maskUnits="userSpaceOnUse" x="-5" y="-1" width="26" height="22">
<path d="M20.8889 -0.444336H-4.44446V20.4444H20.8889V-0.444336Z" fill="white"/>
</mask>
<g mask="url(#mask4_233_1195)">
<path d="M11.1477 19.6613C12.3516 19.5578 13.3871 19.3505 13.977 19.1023C18.3778 17.2514 19.7623 11.875 20.066 9.37609C20.0952 9.13575 20.1097 8.87284 20.1095 8.59216L16.2834 13.762C16.2834 13.762 13.6497 16.9394 11.1477 19.6613Z" fill="#95AF3D"/>
</g>
<mask id="mask5_233_1195" style="mask-type:luminance" maskUnits="userSpaceOnUse" x="-5" y="-1" width="26" height="22">
<path d="M20.8889 -0.444336H-4.44446V20.4444H20.8889V-0.444336Z" fill="white"/>
</mask>
<g mask="url(#mask5_233_1195)">
<path d="M-0.474585 21.7899C0.62989 17.6952 -0.449997 14.7704 -0.830511 13.8427C-1.83482 11.4018 -3.71687 8.34373 -10.074 7.71658C-16.4311 7.09244 -20.9595 13.2119 -21.5317 16.3307C-22.0582 19.2065 -20.3552 24.0267 -19.2662 25.4378C-16.331 29.2405 -10.8478 29.1563 -8.38968 28.7861C-5.92989 28.4133 -1.57954 25.8853 -0.474585 21.7899Z" fill="#FAFAFA"/>
</g>
</g>
</svg>
