<svg width="20" height="20" viewBox="0 0 20 20" fill="none" xmlns="http://www.w3.org/2000/svg">
<mask id="mask0_233_1088" style="mask-type:alpha" maskUnits="userSpaceOnUse" x="0" y="0" width="20" height="20">
<path d="M16.6569 17.5055C21.0438 13.7157 20.0985 8.73064 19.4019 6.46043C18.7052 4.19009 17.2618 1.28987 11.5279 0.160807C5.79418 -0.965297 1.12753 4.09646 0.329109 6.83213C-0.466884 9.56847 0.323859 10.606 1.18743 14.0588C2.04939 17.513 6.82642 19.1363 8.92834 19.7824C11.0311 20.4281 14.201 19.6274 16.6569 17.5055Z" fill="#DEA5BA"/>
</mask>
<g mask="url(#mask0_233_1088)">
<path d="M21.6669 0H-4.33301V21.3333H21.6669V0Z" fill="#F3F4C1"/>
<path d="M-4.33301 0V19.1419L-0.31544 21.3333H0.0841947L6.62294 0H-4.33301Z" fill="#C07290"/>
<mask id="mask1_233_1088" style="mask-type:luminance" maskUnits="userSpaceOnUse" x="-5" y="0" width="27" height="22">
<path d="M21.6669 0H-4.33301V21.3333H21.6669V0Z" fill="white"/>
</mask>
<g mask="url(#mask1_233_1088)">
<path d="M16.1625 0.228449C12.468 -1.98985 9.31752 -1.71068 8.30734 -1.5839C5.64937 -1.24821 2.14866 -0.205326 -0.205338 5.96393C-2.55663 12.1325 2.1755 18.317 5.06309 19.7381C7.72574 21.0474 12.897 20.6639 14.5728 19.9629C19.0895 18.0726 20.5102 12.5817 20.8222 10.0296C21.1325 7.47504 19.8566 2.44699 16.1625 0.228449Z" fill="#DEA5BA"/>
</g>
<mask id="mask2_233_1088" style="mask-type:luminance" maskUnits="userSpaceOnUse" x="-5" y="0" width="27" height="22">
<path d="M21.6669 0H-4.33301V21.3333H21.6669V0Z" fill="white"/>
</mask>
<g mask="url(#mask2_233_1088)">
<path d="M7.04132 -1.36584C4.60964 -0.811914 1.78989 0.734388 -0.205349 5.96387C-1.69186 9.8642 -0.347186 13.7706 1.57307 16.4754L7.04132 -1.36584Z" fill="#4E3760"/>
</g>
<mask id="mask3_233_1088" style="mask-type:luminance" maskUnits="userSpaceOnUse" x="-5" y="0" width="27" height="22">
<path d="M21.6669 0H-4.33301V21.3333H21.6669V0Z" fill="white"/>
</mask>
<g mask="url(#mask3_233_1088)">
<path d="M-0.191895 32.7477C-0.191895 32.7477 5.87532 25.9947 8.61873 23.6004C11.362 21.2057 16.9399 14.5089 16.9399 14.5089L20.8664 9.229L36.0591 -8.42065H46.3403L39.3733 16.4755L32.2285 51.0871H7.66482L4.04235 35.3265L-0.191895 32.7477Z" fill="#C07290"/>
</g>
<mask id="mask4_233_1088" style="mask-type:luminance" maskUnits="userSpaceOnUse" x="-5" y="0" width="27" height="22">
<path d="M21.6669 0H-4.33301V21.3333H21.6669V0Z" fill="white"/>
</mask>
<g mask="url(#mask4_233_1088)">
<path d="M11.6692 20.5337C12.9047 20.428 13.9675 20.2163 14.5729 19.9627C19.0896 18.0725 20.5104 12.5816 20.8222 10.0296C20.8521 9.78416 20.867 9.51566 20.8668 9.229L16.94 14.5089C16.94 14.5089 14.237 17.7539 11.6692 20.5337Z" fill="#4E3760"/>
</g>
<mask id="mask5_233_1088" style="mask-type:luminance" maskUnits="userSpaceOnUse" x="-5" y="0" width="27" height="22">
<path d="M21.6669 0H-4.33301V21.3333H21.6669V0Z" fill="white"/>
</mask>
<g mask="url(#mask5_233_1088)">
<path d="M-0.259039 22.7079C0.8745 18.526 -0.233805 15.539 -0.624332 14.5915C-1.65507 12.0987 -3.58665 8.97557 -10.1111 8.33508C-16.6353 7.69766 -21.283 13.9473 -21.8702 17.1325C-22.4105 20.0695 -20.6629 24.9922 -19.5452 26.4334C-16.5328 30.317 -10.9052 30.2311 -8.38242 29.8529C-5.85778 29.4722 -1.39307 26.8904 -0.259039 22.7079Z" fill="#FAFAFA"/>
</g>
</g>
</svg>
