<svg width="20" height="20" viewBox="0 0 20 20" fill="none" xmlns="http://www.w3.org/2000/svg">
<mask id="mask0_233_1453" style="mask-type:alpha" maskUnits="userSpaceOnUse" x="0" y="0" width="20" height="20">
<path d="M16.6569 17.5055C21.0438 13.7157 20.0985 8.73064 19.4019 6.46043C18.7052 4.19009 17.2618 1.28987 11.5279 0.160807C5.79418 -0.965297 1.12753 4.09646 0.329109 6.83213C-0.466884 9.56847 0.323859 10.606 1.18743 14.0588C2.04939 17.513 6.82642 19.1363 8.92834 19.7824C11.0311 20.4281 14.201 19.6274 16.6569 17.5055Z" fill="#DEA5BA"/>
</mask>
<g mask="url(#mask0_233_1453)">
<path d="M21.3448 0.000488281H-3.73767V20.6667H21.3448V0.000488281Z" fill="#DEA5BA"/>
<path d="M-3.73792 0.000488281V18.5439L0.13762 20.6667H0.523514L6.83138 0.000488281H-3.73792Z" fill="#8B72AB"/>
<mask id="mask1_233_1453" style="mask-type:luminance" maskUnits="userSpaceOnUse" x="-4" y="0" width="26" height="21">
<path d="M21.3448 0.000488281H-3.73767V20.6667H21.3448V0.000488281Z" fill="white"/>
</mask>
<g mask="url(#mask1_233_1453)">
<path d="M16.0347 0.221524C12.4706 -1.92742 9.43134 -1.65698 8.45682 -1.53417C5.89265 -1.20897 2.51549 -0.198691 0.244564 5.77768C-2.02375 11.7533 2.54138 17.7446 5.32706 19.1213C7.89575 20.3896 12.8845 20.0181 14.5011 19.339C18.8584 17.5077 20.229 12.1885 20.53 9.71629C20.8293 7.24155 19.5985 2.37071 16.0347 0.221524Z" fill="#D2C5E2"/>
</g>
<mask id="mask2_233_1453" style="mask-type:luminance" maskUnits="userSpaceOnUse" x="-4" y="0" width="26" height="21">
<path d="M21.3448 0.000488281H-3.73767V20.6667H21.3448V0.000488281Z" fill="white"/>
</mask>
<g mask="url(#mask2_233_1453)">
<path d="M7.23536 -1.32288C4.88949 -0.786263 2.16925 0.711693 0.244431 5.77768C-1.18962 9.55606 0.107599 13.3404 1.96009 15.9606L7.23536 -1.32288Z" fill="#4E3760"/>
</g>
<mask id="mask3_233_1453" style="mask-type:luminance" maskUnits="userSpaceOnUse" x="-4" y="0" width="26" height="21">
<path d="M21.3448 0.000488281H-3.73767V20.6667H21.3448V0.000488281Z" fill="white"/>
</mask>
<g mask="url(#mask3_233_1453)">
<path d="M0.257446 31.7236C0.257446 31.7236 6.11054 25.1817 8.75714 22.8624C11.4036 20.5425 16.7846 14.0551 16.7846 14.0551L20.5726 8.94025L35.2291 -8.15759H45.1474L38.4263 15.9602L31.5337 49.4897H7.83688L4.34225 34.2219L0.257446 31.7236Z" fill="#8B72AB"/>
</g>
<mask id="mask4_233_1453" style="mask-type:luminance" maskUnits="userSpaceOnUse" x="-4" y="0" width="26" height="21">
<path d="M21.3448 0.000488281H-3.73767V20.6667H21.3448V0.000488281Z" fill="white"/>
</mask>
<g mask="url(#mask4_233_1453)">
<path d="M11.6998 19.8918C12.8917 19.7894 13.9171 19.5843 14.5011 19.3387C18.8583 17.5076 20.229 12.1884 20.5298 9.71614C20.5587 9.47836 20.5731 9.21824 20.5728 8.94055L16.7846 14.0554C16.7846 14.0554 14.1772 17.1989 11.6998 19.8918Z" fill="#4E3760"/>
</g>
<mask id="mask5_233_1453" style="mask-type:luminance" maskUnits="userSpaceOnUse" x="-4" y="0" width="26" height="21">
<path d="M21.3448 0.000488281H-3.73767V20.6667H21.3448V0.000488281Z" fill="white"/>
</mask>
<g mask="url(#mask5_233_1453)">
<path d="M0.192598 21.9981C1.28613 17.947 0.216942 15.0533 -0.159803 14.1355C-1.15416 11.7206 -3.01757 8.6951 -9.31178 8.07463C-15.6058 7.45714 -20.0894 13.5114 -20.6558 16.597C-21.1771 19.4422 -19.4912 24.211 -18.4129 25.6071C-15.5068 29.3693 -10.0779 29.286 -7.6441 28.9197C-5.20856 28.551 -0.901411 26.0498 0.192598 21.9981Z" fill="#FAFAFA"/>
</g>
</g>
</svg>
