<svg width="24" height="24" viewBox="0 0 24 24" fill="none" xmlns="http://www.w3.org/2000/svg">
<path d="M8.99982 21H14.9998M17.9998 8.6C17.9998 7.11479 17.3677 5.69041 16.2425 4.6402C15.1172 3.59 13.5911 3 11.9998 3C10.4085 3 8.88239 3.59 7.75718 4.6402C6.63196 5.69041 5.99982 7.11479 5.99982 8.6C5.99982 11.2862 5.32362 13.1835 4.52727 14.4866C3.75598 15.7486 3.37033 16.3797 3.38466 16.5436C3.40077 16.7277 3.43711 16.7925 3.58585 16.9023C3.71823 17 4.34744 17 5.60587 17H18.3938C19.6522 17 20.2814 17 20.4138 16.9023C20.5625 16.7925 20.5989 16.7277 20.615 16.5436C20.6293 16.3797 20.2437 15.7486 19.4724 14.4866C18.676 13.1835 17.9998 11.2862 17.9998 8.6Z" stroke="#404041" stroke-linecap="round" stroke-linejoin="round"/>
</svg>
