<svg width="24" height="24" viewBox="0 0 24 24" fill="none" xmlns="http://www.w3.org/2000/svg">
<path fill-rule="evenodd" clip-rule="evenodd" d="M5.56111 3.30005H18.4385C19.1555 3.30003 19.7497 3.30002 20.2283 3.35187C20.7285 3.40607 21.1847 3.52357 21.5868 3.8157C21.816 3.98224 22.0176 4.18381 22.1842 4.41303C22.4763 4.81511 22.5938 5.27131 22.648 5.77155C22.6998 6.25013 22.6998 6.84437 22.6998 7.56141V18.4387C22.6998 19.1557 22.6998 19.75 22.648 20.2285C22.5938 20.7288 22.4763 21.185 22.1842 21.5871C22.0176 21.8163 21.816 22.0179 21.5868 22.1844C21.1847 22.4765 20.7285 22.594 20.2283 22.6482C19.7497 22.7001 19.1555 22.7001 18.4384 22.7H5.56116C4.84413 22.7001 4.24989 22.7001 3.77131 22.6482C3.27106 22.594 2.81487 22.4765 2.41279 22.1844C2.18357 22.0179 1.98199 21.8163 1.81546 21.5871C1.52333 21.185 1.40582 20.7288 1.35162 20.2285C1.29977 19.75 1.29979 19.1558 1.29981 18.4387V7.56135C1.29979 6.84434 1.29977 6.25012 1.35162 5.77155C1.40582 5.27131 1.52333 4.81511 1.81546 4.41303C1.98199 4.18381 2.18357 3.98224 2.41279 3.8157C2.81487 3.52357 3.27106 3.40607 3.77131 3.35187C4.24988 3.30002 4.8441 3.30003 5.56111 3.30005ZM3.92211 4.74372C3.54098 4.78502 3.35933 4.85849 3.23568 4.94833C3.12532 5.02851 3.02827 5.12557 2.94808 5.23593C2.85825 5.35958 2.78477 5.54122 2.74348 5.92235C2.70077 6.31658 2.69981 6.83451 2.69981 7.60005V18.4C2.69981 19.1656 2.70077 19.6835 2.74348 20.0777C2.78477 20.4589 2.85825 20.6405 2.94808 20.7642C3.02827 20.8745 3.12532 20.9716 3.23568 21.0518C3.35933 21.1416 3.54098 21.2151 3.92211 21.2564C4.31634 21.2991 4.83427 21.3 5.59981 21.3H18.3998C19.1653 21.3 19.6833 21.2991 20.0775 21.2564C20.4586 21.2151 20.6403 21.1416 20.7639 21.0518C20.8743 20.9716 20.9713 20.8745 21.0515 20.7642C21.1414 20.6405 21.2148 20.4589 21.2561 20.0777C21.2988 19.6835 21.2998 19.1656 21.2998 18.4V7.60005C21.2998 6.83451 21.2988 6.31658 21.2561 5.92235C21.2148 5.54122 21.1414 5.35958 21.0515 5.23593C20.9713 5.12557 20.8743 5.02851 20.7639 4.94833C20.6403 4.85849 20.4586 4.78502 20.0775 4.74372C19.6833 4.70101 19.1653 4.70005 18.3998 4.70005H5.59981C4.83427 4.70005 4.31634 4.70101 3.92211 4.74372Z" fill="#404041"/>
<path fill-rule="evenodd" clip-rule="evenodd" d="M2.2998 9.00005C2.2998 8.61345 2.61321 8.30005 2.9998 8.30005L20.9998 8.30005C21.3864 8.30005 21.6998 8.61345 21.6998 9.00005C21.6998 9.38665 21.3864 9.70005 20.9998 9.70005L2.9998 9.70005C2.61321 9.70005 2.2998 9.38665 2.2998 9.00005Z" fill="#404041"/>
<path fill-rule="evenodd" clip-rule="evenodd" d="M5.2998 13C5.2998 12.6134 5.61321 12.3 5.9998 12.3H6.9998C7.3864 12.3 7.6998 12.6134 7.6998 13C7.6998 13.3866 7.3864 13.7 6.9998 13.7H5.9998C5.61321 13.7 5.2998 13.3866 5.2998 13Z" fill="#404041"/>
<path fill-rule="evenodd" clip-rule="evenodd" d="M16.2998 13C16.2998 12.6134 16.6132 12.3 16.9998 12.3H17.9998C18.3864 12.3 18.6998 12.6134 18.6998 13C18.6998 13.3866 18.3864 13.7 17.9998 13.7H16.9998C16.6132 13.7 16.2998 13.3866 16.2998 13Z" fill="#404041"/>
<path fill-rule="evenodd" clip-rule="evenodd" d="M10.7998 13C10.7998 12.6134 11.1132 12.3 11.4998 12.3H12.4998C12.8864 12.3 13.1998 12.6134 13.1998 13C13.1998 13.3866 12.8864 13.7 12.4998 13.7H11.4998C11.1132 13.7 10.7998 13.3866 10.7998 13Z" fill="#404041"/>
<path fill-rule="evenodd" clip-rule="evenodd" d="M5.2998 17C5.2998 16.6134 5.61321 16.3 5.9998 16.3H6.9998C7.3864 16.3 7.6998 16.6134 7.6998 17C7.6998 17.3866 7.3864 17.7 6.9998 17.7H5.9998C5.61321 17.7 5.2998 17.3866 5.2998 17Z" fill="#404041"/>
<path fill-rule="evenodd" clip-rule="evenodd" d="M16.2998 17C16.2998 16.6134 16.6132 16.3 16.9998 16.3H17.9998C18.3864 16.3 18.6998 16.6134 18.6998 17C18.6998 17.3866 18.3864 17.7 17.9998 17.7H16.9998C16.6132 17.7 16.2998 17.3866 16.2998 17Z" fill="#404041"/>
<path fill-rule="evenodd" clip-rule="evenodd" d="M10.7998 17C10.7998 16.6134 11.1132 16.3 11.4998 16.3H12.4998C12.8864 16.3 13.1998 16.6134 13.1998 17C13.1998 17.3866 12.8864 17.7 12.4998 17.7H11.4998C11.1132 17.7 10.7998 17.3866 10.7998 17Z" fill="#404041"/>
<path fill-rule="evenodd" clip-rule="evenodd" d="M16.6999 2C17.0865 2 17.3999 2.3134 17.3999 2.7V5.3C17.3999 5.6866 17.0865 6 16.6999 6C16.3133 6 15.9999 5.6866 15.9999 5.3V2.7C15.9999 2.3134 16.3133 2 16.6999 2Z" fill="#404041"/>
<path fill-rule="evenodd" clip-rule="evenodd" d="M7.6999 2C8.0865 2 8.3999 2.3134 8.3999 2.7V5.3C8.3999 5.6866 8.0865 6 7.6999 6C7.3133 6 6.9999 5.6866 6.9999 5.3V2.7C6.9999 2.3134 7.3133 2 7.6999 2Z" fill="#404041"/>
</svg>
