<svg width="20" height="20" viewBox="0 0 20 20" fill="none" xmlns="http://www.w3.org/2000/svg">
<circle cx="10" cy="10" r="10" fill="#6EB17E"/>
<g clip-path="url(#clip0_96_12806)">
<path d="M9.46233 5C9.54311 5.06214 9.56251 5.13798 9.54175 5.245C9.41026 5.92317 9.29143 6.60411 9.15547 7.28123C9.10012 7.55694 9.12503 7.82455 9.17139 8.09316C9.25847 8.59766 9.27453 9.10785 9.29516 9.61806C9.32951 10.4666 9.36087 11.3154 9.40241 12.1636C9.43307 12.7897 9.35598 13.3992 9.15127 13.9851C8.93728 14.5975 8.3662 14.9969 7.74367 15C7.12334 15.0031 6.5507 14.604 6.3247 13.9993C6.11261 13.4318 5.98105 12.8461 6.00223 12.2304C6.00324 12.2011 6.0024 12.1716 6.00586 12.1427C6.01083 12.1013 6.01898 12.0603 6.02721 12.0105C6.12427 12.0247 6.21706 12.0383 6.31353 12.0524C6.25348 12.6565 6.37026 13.2239 6.56137 13.7791C6.74524 14.3133 7.10229 14.6336 7.63905 14.6801C8.1594 14.7252 8.56097 14.4862 8.81899 14.0051C8.96044 13.7414 8.9975 13.4395 9.05513 13.1474C9.14739 12.6797 9.10469 12.2073 9.08656 11.7363C9.05928 11.0275 9.02819 10.3189 8.99871 9.61011C8.9979 9.59072 8.99686 9.57134 8.98324 9.55128C8.97027 9.77433 8.96182 9.99778 8.94341 10.2203C8.90491 10.6857 8.82515 11.1415 8.63483 11.5685C8.55012 11.7586 8.4433 11.9329 8.29442 12.0743C7.8388 12.507 7.1668 12.4141 6.79261 11.8684C6.6315 11.6335 6.53533 11.3672 6.43906 11.0902C6.41079 11.3043 6.38252 11.5184 6.35331 11.7396C6.2544 11.7252 6.16388 11.7121 6.06301 11.6975C6.08894 11.4876 6.1137 11.2827 6.13962 11.078C6.23552 10.3206 6.33115 9.56307 6.42816 8.80577C6.48999 8.32311 6.52587 7.83489 6.70383 7.3769C6.93391 6.7848 7.09519 6.17258 7.17548 5.53782C7.18845 5.43529 7.18922 5.32992 7.18467 5.2264C7.18047 5.13086 7.20315 5.05497 7.27894 5C8.00674 5 8.73453 5 9.46233 5ZM8.34267 8.21356C8.32802 8.21813 8.31838 8.21922 8.3106 8.22384C7.78177 8.53742 7.25292 8.85101 6.72493 9.16616C6.70329 9.17907 6.67687 9.20547 6.67438 9.22825C6.64633 9.48295 6.59417 9.73951 6.60479 9.99293C6.61806 10.3092 6.66998 10.6261 6.73104 10.9371C6.79452 11.2605 6.9072 11.5687 7.13592 11.8098C7.41804 12.1071 7.83685 12.1071 8.12238 11.8139C8.26449 11.668 8.35594 11.4881 8.42642 11.2955C8.58484 10.8627 8.64009 10.4089 8.6627 9.9496C8.66468 9.90945 8.64268 9.86259 8.61998 9.82735C8.49926 9.63974 8.3748 9.45485 8.24672 9.26164C8.33249 9.20026 8.41021 9.14461 8.49217 9.08594C8.55862 9.18659 8.62049 9.28035 8.69668 9.39576C8.70878 9.20761 8.7199 9.04946 8.72811 8.89118C8.72937 8.86705 8.72235 8.83859 8.71009 8.81816C8.5899 8.61783 8.46781 8.41883 8.34267 8.21356ZM7.50309 6.30164C7.69771 6.61039 7.87926 6.89841 8.06219 7.18865C8.35429 7.00762 8.64172 6.8316 8.92611 6.65034C8.95809 6.62996 8.97304 6.57979 9.00692 6.52592C8.67276 6.47497 8.36654 6.4283 8.05248 6.3804C8.0674 6.27432 8.08119 6.17633 8.09574 6.07273C8.41663 6.1205 8.72895 6.16699 9.04714 6.21437C9.06793 6.10438 9.08688 6.00391 9.10838 5.89009C8.55783 5.80488 8.01482 5.72083 7.46429 5.63562C7.44571 5.75328 7.42925 5.85743 7.41191 5.96723C7.54216 5.98805 7.666 6.00783 7.79801 6.02893C7.78348 6.13321 7.76989 6.23094 7.75556 6.33386C7.67339 6.32334 7.60077 6.31408 7.50309 6.30164ZM8.89261 7.04649C8.86955 7.05559 8.85766 7.05833 8.84771 7.06449C8.17593 7.48131 7.5042 7.89825 6.83302 8.31611C6.81322 8.32843 6.78698 8.3486 6.78399 8.36847C6.76323 8.50711 6.74781 8.6466 6.73047 8.78753C6.74586 8.78753 6.74949 8.78873 6.75179 8.78738C7.42589 8.38817 8.09997 7.98894 8.77345 7.58853C8.79297 7.57692 8.8166 7.55475 8.82001 7.53414C8.8463 7.37541 8.86802 7.21583 8.89261 7.04649ZM7.29181 6.53088C7.25052 6.6734 7.21477 6.79374 7.18153 6.91487C7.17622 6.93426 7.17479 6.96207 7.1841 6.97762C7.29372 7.16052 7.40575 7.34186 7.51883 7.52636C7.61824 7.46445 7.70757 7.40886 7.80596 7.3476C7.63564 7.07701 7.46953 6.81313 7.29181 6.53088ZM9.22293 5.31611C8.6415 5.31611 8.07286 5.31611 7.50423 5.31611C7.50395 5.31927 7.50368 5.32245 7.50341 5.32561C8.05574 5.41087 8.60804 5.49613 9.1683 5.58258C9.18651 5.49373 9.20386 5.40917 9.22293 5.31611ZM7.03606 7.3152C6.96724 7.53482 6.9071 7.72675 6.84693 7.91871C6.8533 7.92291 6.85968 7.92708 6.86603 7.93128C6.9968 7.85017 7.12756 7.76906 7.26295 7.68511C7.18998 7.56617 7.12176 7.45493 7.03606 7.3152ZM8.74956 8.3025C8.7566 8.30054 8.76362 8.29861 8.77066 8.29665C8.77805 8.18272 8.78546 8.0688 8.79394 7.93801C8.7228 7.97999 8.66522 8.01398 8.60075 8.05202C8.65324 8.14036 8.7014 8.22144 8.74956 8.3025Z" fill="white"/>
<path d="M12.1267 5.00005C12.2021 5.05526 12.2226 5.13112 12.2209 5.22655C12.2161 5.50638 12.218 5.78636 12.2197 6.06624C12.2209 6.25569 12.2977 6.40581 12.4475 6.50948C12.4868 6.53667 12.5367 6.55796 12.583 6.56093C13.2709 6.60518 13.8145 7.10866 13.9596 7.83001C14.0705 8.38134 13.9584 8.85542 13.5494 9.23511C13.4522 9.32532 13.3577 9.41943 13.2552 9.50239C12.8739 9.81083 12.6798 10.2398 12.5528 10.7108C12.4184 11.2092 12.4548 11.7072 12.5586 12.2068C12.6417 12.6067 12.7228 13.0081 12.7802 13.4127C12.8277 13.7476 12.7978 14.088 12.6591 14.3963C12.4735 14.8087 12.1438 15.0155 11.7125 14.9953C11.2988 14.9759 11.003 14.7462 10.8518 14.338C10.6176 13.7057 10.3874 13.0713 10.1731 12.4312C10.1106 12.2446 10.1059 12.0358 10.0785 11.8366C10.0533 11.6533 10.0332 11.4693 10.0093 11.2735C10.1063 11.2589 10.1989 11.2448 10.3002 11.2294C10.3415 11.5518 10.3817 11.8664 10.4215 12.1773C10.4344 12.1821 10.4401 12.1858 10.446 12.1862C10.648 12.2005 10.6484 12.2007 10.735 12.0086C10.975 11.4759 11.1818 10.9308 11.2827 10.3471C11.3015 10.2385 11.3147 10.1285 11.3229 10.0185C11.3248 9.99361 11.3001 9.95025 11.2786 9.94208C10.8722 9.78793 10.5001 9.56959 10.1642 9.28264C10.1642 9.61827 10.1642 9.94954 10.1642 10.2937C10.0873 10.3052 9.99432 10.3191 9.88834 10.335C9.87534 10.1959 9.85253 10.0643 9.85233 9.93277C9.84986 8.36396 9.8514 6.79515 9.84912 5.22637C9.84897 5.13117 9.86746 5.05499 9.94324 5C10.6711 5.00005 11.3989 5.00005 12.1267 5.00005ZM10.5142 12.5002C10.5237 12.5334 10.5286 12.555 10.5359 12.5756C10.7314 13.1229 10.9257 13.6706 11.1234 14.217C11.2294 14.5098 11.4707 14.6867 11.7537 14.6877C12.0431 14.6888 12.3145 14.5089 12.4102 14.2224C12.4925 13.9759 12.5295 13.7132 12.4889 13.4536C12.4252 13.0465 12.3476 12.6414 12.2638 12.2383C12.1551 11.7158 12.1256 11.1949 12.2567 10.6731C12.4031 10.09 12.656 9.57812 13.1279 9.20701C13.2602 9.103 13.3749 8.97175 13.4883 8.84383C13.5926 8.72625 13.6739 8.58728 13.69 8.42357C13.7409 7.90465 13.6064 7.45603 13.2126 7.11915C13.0418 6.9731 12.842 6.89494 12.6199 6.88354C12.6081 6.91571 12.5987 6.93953 12.5907 6.96382C12.2938 7.85933 11.9954 8.7543 11.7023 9.65117C11.6618 9.77504 11.6439 9.90778 11.622 10.0376C11.6032 10.1495 11.5982 10.2641 11.5791 10.3759C11.4623 11.0607 11.2146 11.6959 10.9239 12.3159C10.8587 12.455 10.7762 12.5246 10.6287 12.501C10.5957 12.4957 10.5613 12.5002 10.5142 12.5002ZM12.3266 6.81443C12.2561 6.75012 12.1896 6.70066 12.1371 6.63818C12.0937 6.58657 12.0545 6.57538 11.9927 6.59218C11.699 6.67204 11.438 6.82351 11.1873 6.99677C11.0459 7.09444 10.9098 7.20039 10.7664 7.30623C10.7072 7.22559 10.6493 7.14662 10.5808 7.05325C10.804 6.89799 11.0126 6.73421 11.2376 6.60165C11.4611 6.46999 11.7012 6.36967 11.9379 6.25379C11.9311 6.1623 11.9232 6.05406 11.9153 5.94641C11.2056 5.985 10.5711 6.4044 10.1739 6.89525C10.1609 6.91135 10.1486 6.93454 10.1483 6.95461C10.1462 7.11273 10.1471 7.27088 10.1471 7.4493C10.2215 7.38358 10.2814 7.33059 10.3487 7.27109C10.4128 7.35157 10.4737 7.4279 10.5359 7.50604C10.4004 7.63565 10.2691 7.76124 10.126 7.89818C10.2654 8.03183 10.3925 8.15364 10.5258 8.28142C10.4712 8.35793 10.4146 8.4373 10.3549 8.52094C10.2845 8.46521 10.2204 8.41449 10.1469 8.3564C10.1469 8.51361 10.1434 8.65365 10.1492 8.79327C10.1507 8.82941 10.1736 8.8729 10.1995 8.89831C10.5243 9.2162 10.8958 9.45483 11.3107 9.61817C11.3349 9.62769 11.3607 9.63249 11.3897 9.64058C11.4437 9.47659 11.4948 9.32138 11.548 9.16C11.2256 9.04918 10.9236 8.91532 10.6395 8.72479C10.6925 8.63426 10.7417 8.55018 10.7929 8.46252C11.0693 8.63343 11.3448 8.77282 11.6482 8.86045C11.8767 8.17125 12.1023 7.49104 12.3266 6.81443ZM10.1516 6.46354C10.4529 6.15977 10.7902 5.94427 11.1867 5.78889C10.8239 5.78889 10.4872 5.78889 10.1516 5.78889C10.1516 6.01244 10.1516 6.22843 10.1516 6.46354ZM10.1509 5.46229C10.745 5.46229 11.3318 5.46229 11.9192 5.46229C11.9192 5.41134 11.9192 5.36696 11.9192 5.3176C11.3285 5.3176 10.7417 5.3176 10.1509 5.3176C10.1509 5.36673 10.1509 5.41113 10.1509 5.46229Z" fill="white"/>
</g>
<defs>
<clipPath id="clip0_96_12806">
<rect width="8" height="10" fill="white" transform="translate(6 5)"/>
</clipPath>
</defs>
</svg>
