<svg width="20" height="20" viewBox="0 0 20 20" fill="none" xmlns="http://www.w3.org/2000/svg">
<circle cx="10" cy="10" r="10" fill="#A4CE57"/>
<path d="M7.75 12.9167C7.75 13.3769 7.19036 13.75 6.5 13.75C5.80964 13.75 5.25 13.3769 5.25 12.9167C5.25 12.4564 5.80964 12.0833 6.5 12.0833C7.19036 12.0833 7.75 12.4564 7.75 12.9167ZM7.75 12.9167V7.08333L12.75 6.25V12.0833M12.75 12.0833C12.75 12.5436 12.1904 12.9167 11.5 12.9167C10.8096 12.9167 10.25 12.5436 10.25 12.0833C10.25 11.6231 10.8096 11.25 11.5 11.25C12.1904 11.25 12.75 11.6231 12.75 12.0833ZM7.75 8.75L12.75 7.91667" stroke="white" stroke-width="0.5" stroke-linecap="round" stroke-linejoin="round"/>
</svg>
