<svg width="20" height="20" viewBox="0 0 20 20" fill="none" xmlns="http://www.w3.org/2000/svg">
<circle cx="10" cy="10" r="10" fill="#8B72AB"/>
<g clip-path="url(#clip0_96_12816)">
<path d="M6.26408 11.0714C5.67656 10.3266 5.357 9.40567 5.35693 8.45707V6.1285C6.33603 5.62184 7.42237 5.35742 8.52479 5.35742C9.62721 5.35742 10.7136 5.62184 11.6926 6.1285" stroke="white" stroke-width="0.5" stroke-linecap="round" stroke-linejoin="round"/>
<path d="M10.564 14.6C10.314 14.6565 10.0542 14.653 9.8059 14.5897C9.55757 14.5263 9.3278 14.4051 9.13541 14.2358C8.46702 13.6596 7.97207 12.9088 7.70591 12.0674C7.43975 11.2261 7.41286 10.3272 7.62826 9.47147L8.14969 7.38576C9.28218 7.09854 10.4683 7.09698 11.6015 7.38123C12.7347 7.66547 13.7797 8.22663 14.6426 9.01433L14.1211 11.0929C13.9109 11.9494 13.4671 12.7308 12.8391 13.3501C12.211 13.9693 11.4234 14.402 10.564 14.6Z" stroke="white" stroke-width="0.5" stroke-linecap="round" stroke-linejoin="round"/>
<path d="M9.00684 9.65001C9.09694 9.55571 9.21115 9.48789 9.33706 9.45389C9.46298 9.4199 9.5958 9.42102 9.72112 9.45715C9.84378 9.48601 9.95663 9.5468 10.0482 9.63336C10.1398 9.71992 10.2068 9.82917 10.2426 9.95001M11.8354 10.3572C11.9226 10.2634 12.0334 10.1949 12.1563 10.1586C12.2791 10.1224 12.4093 10.1199 12.5335 10.1513C12.6576 10.1827 12.771 10.2468 12.8618 10.3371C12.9526 10.4274 13.0175 10.5404 13.0497 10.6643" stroke="white" stroke-width="0.5" stroke-linecap="round" stroke-linejoin="round"/>
</g>
<defs>
<clipPath id="clip0_96_12816">
<rect width="10" height="10" fill="white" transform="translate(5 5)"/>
</clipPath>
</defs>
</svg>
