<svg width="20" height="20" viewBox="0 0 20 20" fill="none" xmlns="http://www.w3.org/2000/svg">
<circle cx="10" cy="10" r="10" fill="#C07290"/>
<path d="M9.91378 9.49722L13.5249 6.4403C13.652 6.33271 13.8404 6.34052 13.9581 6.45826C14.0759 6.57601 14.0837 6.76438 13.9761 6.89149L10.9192 10.5026M9.91378 9.49722L8.99477 10.2752C8.63159 10.5826 8.60868 11.1348 8.94515 11.4713C9.28162 11.8077 9.83379 11.7848 10.1412 11.4216L10.9192 10.5026M9.91378 9.49722L10.9192 10.5026M9.30811 12.3958C9.30811 13.1437 8.70182 13.7499 7.95394 13.7499H6.0415L6.12913 13.7061C6.56079 13.4903 6.77599 12.9964 6.64011 12.5333C6.61336 12.4421 6.59731 12.3472 6.60724 12.2527C6.67871 11.5721 7.25438 11.0416 7.95394 11.0416C8.70182 11.0416 9.30811 11.6479 9.30811 12.3958Z" stroke="white" stroke-width="0.5" stroke-linecap="round" stroke-linejoin="round"/>
</svg>
