<svg width="20" height="24" viewBox="0 0 20 24" fill="none" xmlns="http://www.w3.org/2000/svg">
<g clip-path="url(#clip0_96_12801)">
<path d="M8.90969 0C9.10356 0.149143 9.15011 0.331158 9.10029 0.587994C8.78473 2.21561 8.49953 3.84986 8.17324 5.47496C8.04039 6.13665 8.10017 6.77893 8.21143 7.42359C8.42042 8.63439 8.45897 9.85884 8.50849 11.0834C8.59092 13.1199 8.66618 15.1569 8.76587 17.1926C8.83947 18.6953 8.65444 20.1582 8.16316 21.5642C7.64957 23.0341 6.27898 23.9925 4.7849 24C3.29611 24.0074 1.92178 23.0495 1.37937 21.5984C0.870358 20.2364 0.554618 18.8307 0.605442 17.3529C0.607873 17.2827 0.605857 17.2119 0.61416 17.1424C0.62608 17.0431 0.645651 16.9448 0.665399 16.8251C0.898349 16.8592 1.12104 16.8919 1.35257 16.9258C1.20846 18.3756 1.48873 19.7374 1.9474 21.0699C2.38868 22.3519 3.24558 23.1206 4.53381 23.2323C5.78265 23.3406 6.74642 22.7669 7.36568 21.6123C7.70514 20.9793 7.7941 20.2548 7.9324 19.5538C8.15384 18.4314 8.05137 17.2975 8.00784 16.1672C7.94236 14.4661 7.86776 12.7652 7.79701 11.0643C7.79505 11.0177 7.79256 10.9712 7.75988 10.9231C7.72875 11.4584 7.70846 11.9947 7.66428 12.5288C7.57188 13.6457 7.38045 14.7395 6.92368 15.7644C6.72038 16.2205 6.46401 16.639 6.10669 16.9783C5.01323 18.0169 3.40043 17.7939 2.50237 16.4842C2.1157 15.9203 1.88489 15.2813 1.65384 14.6165C1.58599 15.1304 1.51815 15.6442 1.44805 16.175C1.21065 16.1406 0.993415 16.109 0.751332 16.0739C0.813543 15.5702 0.872967 15.0785 0.935178 14.5872C1.16534 12.7693 1.39485 10.9514 1.62768 9.13385C1.77606 7.97546 1.86217 6.80373 2.28929 5.70456C2.84148 4.28351 3.22856 2.81418 3.42124 1.29076C3.45238 1.04469 3.45422 0.791798 3.44331 0.543351C3.43322 0.314064 3.48767 0.131925 3.66955 0C5.41627 0 7.16298 0 8.90969 0ZM6.22252 7.71255C6.18735 7.7235 6.16422 7.72613 6.14554 7.73721C4.87635 8.48982 3.60711 9.24242 2.33994 9.99878C2.28798 10.0298 2.22459 10.0931 2.2186 10.1478C2.15129 10.7591 2.02609 11.3748 2.0516 11.983C2.08344 12.7421 2.20804 13.5026 2.35458 14.249C2.50694 15.0252 2.77737 15.765 3.3263 16.3436C4.00338 17.0571 5.00854 17.057 5.69381 16.3534C6.03488 16.0032 6.25436 15.5714 6.4235 15.1093C6.80371 14.0705 6.93631 12.9815 6.99058 11.879C6.99532 11.7827 6.94254 11.6702 6.88804 11.5856C6.59833 11.1354 6.29961 10.6916 5.99224 10.2279C6.19808 10.0806 6.3846 9.94706 6.58131 9.80624C6.74078 10.0478 6.88928 10.2728 7.07212 10.5498C7.10118 10.0983 7.12787 9.71871 7.14756 9.33884C7.15058 9.28093 7.13374 9.21262 7.10432 9.16359C6.81586 8.68279 6.52284 8.20518 6.22252 7.71255ZM4.20751 3.12393C4.6746 3.86494 5.11031 4.55619 5.54935 5.25275C6.25039 4.81828 6.94023 4.39584 7.62277 3.9608C7.69951 3.9119 7.73539 3.7915 7.8167 3.66221C7.01471 3.53992 6.27981 3.42791 5.52604 3.31295C5.56186 3.05837 5.59495 2.8232 5.62988 2.57456C6.40002 2.68921 7.14957 2.80078 7.91324 2.91449C7.96312 2.65051 8.00861 2.40939 8.0602 2.13621C6.73889 1.93172 5.43566 1.72998 4.1144 1.52549C4.0698 1.80787 4.03031 2.05782 3.98867 2.32136C4.30127 2.37132 4.59851 2.41878 4.91532 2.46944C4.88044 2.7197 4.84783 2.95425 4.81343 3.20125C4.61624 3.17602 4.44194 3.15379 4.20751 3.12393ZM7.54235 4.91158C7.48702 4.93343 7.45849 4.94 7.43459 4.95478C5.82233 5.95514 4.21018 6.95581 2.59934 7.95868C2.55183 7.98823 2.48885 8.03663 2.48167 8.08434C2.43186 8.41706 2.39485 8.75185 2.35322 9.09008C2.39017 9.09008 2.39889 9.09296 2.4044 9.08971C4.02224 8.13161 5.64002 7.17345 7.25638 6.21248C7.30323 6.18461 7.35993 6.13139 7.36811 6.08193C7.43121 5.70099 7.48334 5.31799 7.54235 4.91158ZM3.70045 3.6741C3.60135 4.01615 3.51554 4.30499 3.43577 4.5957C3.42302 4.64222 3.41958 4.70896 3.44194 4.74628C3.70502 5.18525 3.97391 5.62047 4.24529 6.06327C4.48387 5.91469 4.69826 5.78126 4.93441 5.63425C4.52562 4.98483 4.12697 4.35151 3.70045 3.6741ZM8.33514 0.758676C6.93969 0.758676 5.57497 0.758676 4.21024 0.758676C4.20959 0.766252 4.20893 0.773891 4.20828 0.781467C5.53387 0.986084 6.85939 1.1907 8.20402 1.3982C8.24772 1.18494 8.28936 0.982014 8.33514 0.758676ZM3.08665 5.55648C2.92148 6.08356 2.77713 6.5442 2.63272 7.0049C2.64803 7.01498 2.66333 7.025 2.67857 7.03508C2.99241 6.84042 3.30625 6.64575 3.63118 6.44427C3.45606 6.15882 3.29232 5.89184 3.08665 5.55648ZM7.19903 7.92599C7.21594 7.9213 7.23278 7.91666 7.24968 7.91197C7.26741 7.63854 7.2852 7.36511 7.30555 7.05123C7.13481 7.15198 6.99663 7.23356 6.8419 7.32485C6.96786 7.53685 7.08345 7.73145 7.19903 7.92599Z" fill="black"/>
<path d="M15.3045 0.000125225C15.4855 0.132613 15.5346 0.31469 15.5307 0.543727C15.5191 1.21531 15.5237 1.88727 15.5278 2.55897C15.5306 3.01366 15.7149 3.37394 16.0745 3.62276C16.1688 3.688 16.2886 3.73909 16.3997 3.74623C18.0506 3.85242 19.3552 5.06078 19.7035 6.79202C19.9696 8.11521 19.7007 9.253 18.7191 10.1643C18.4859 10.3808 18.259 10.6066 18.0129 10.8057C17.0979 11.546 16.6321 12.5755 16.3272 13.7059C16.0046 14.9021 16.092 16.0973 16.3412 17.2963C16.5406 18.2562 16.7351 19.2195 16.8729 20.1906C16.9869 20.9942 16.9152 21.8113 16.5824 22.551C16.137 23.5409 15.3456 24.0373 14.3104 23.9887C13.3176 23.9421 12.6078 23.3909 12.2449 22.4113C11.6827 20.8936 11.1302 19.3712 10.6159 17.835C10.4658 17.3869 10.4547 16.886 10.3889 16.4079C10.3284 15.968 10.2801 15.5262 10.2229 15.0565C10.4555 15.0212 10.6778 14.9876 10.9209 14.9507C11.02 15.7244 11.1166 16.4794 11.2121 17.2255C11.2431 17.2371 11.2567 17.2459 11.2708 17.2469C11.7556 17.2812 11.7567 17.2817 11.9645 16.8206C12.5404 15.5421 13.0367 14.2338 13.2789 12.8331C13.324 12.5724 13.3559 12.3084 13.3755 12.0444C13.38 11.9847 13.3208 11.8806 13.2692 11.861C12.2937 11.491 11.4007 10.967 10.5945 10.2783C10.5945 11.0839 10.5945 11.8789 10.5945 12.7048C10.4099 12.7324 10.1869 12.7659 9.9325 12.8039C9.9013 12.4701 9.84657 12.1544 9.84609 11.8386C9.84016 8.07351 9.84384 4.30837 9.83838 0.543289C9.83803 0.314816 9.88238 0.131987 10.0643 0C11.8111 0.000125225 13.5578 0.000125225 15.3045 0.000125225ZM11.4346 18.0006C11.4573 18.0802 11.469 18.1321 11.4867 18.1815C11.9559 19.495 12.4222 20.8095 12.8967 22.1208C13.151 22.8234 13.7302 23.248 14.4094 23.2505C15.104 23.253 15.7553 22.8213 15.9849 22.1338C16.1825 21.5421 16.2712 20.9117 16.1738 20.2886C16.021 19.3116 15.8347 18.3394 15.6335 17.3718C15.3728 16.118 15.302 14.8677 15.6165 13.6155C15.968 12.2161 16.5748 10.9875 17.7076 10.0968C18.0251 9.84719 18.3001 9.53219 18.5725 9.2252C18.8228 8.94301 19.0178 8.60947 19.0565 8.21658C19.1787 6.97115 18.8559 5.89447 17.9106 5.08595C17.5008 4.73545 17.0213 4.54786 16.4882 4.5205C16.46 4.5977 16.4375 4.65486 16.4182 4.71316C15.7057 6.86239 14.9896 9.01031 14.286 11.1628C14.1888 11.4601 14.1459 11.7787 14.0934 12.0903C14.0481 12.3589 14.0362 12.6338 13.9903 12.9022C13.7099 14.5456 13.1155 16.0701 12.4178 17.5581C12.2613 17.8919 12.0634 18.0591 11.7095 18.0023C11.6302 17.9898 11.5476 18.0006 11.4346 18.0006ZM15.7844 4.35464C15.615 4.2003 15.4556 4.08158 15.3295 3.93163C15.2253 3.80778 15.1313 3.78092 14.983 3.82124C14.2782 4.0129 13.6517 4.37643 13.0499 4.79224C12.7108 5.02666 12.3839 5.28093 12.0398 5.53495C11.8979 5.34141 11.7589 5.15188 11.5945 4.92779C12.1301 4.55518 12.6306 4.1621 13.1707 3.84397C13.7072 3.52796 14.2835 3.28722 14.8514 3.00909C14.8352 2.78951 14.8161 2.52973 14.7972 2.27139C13.0939 2.364 11.571 3.37056 10.6179 4.54861C10.5867 4.58724 10.557 4.6429 10.5564 4.69105C10.5513 5.07055 10.5536 5.45011 10.5536 5.87831C10.732 5.72059 10.8759 5.59343 11.0374 5.45061C11.1912 5.64377 11.3373 5.82697 11.4866 6.01449C11.1615 6.32555 10.8464 6.62697 10.5028 6.95562C10.8375 7.27639 11.1425 7.56872 11.4625 7.8754C11.3314 8.05904 11.1955 8.24951 11.0524 8.45025C10.8833 8.31651 10.7294 8.19479 10.553 8.05535C10.553 8.43265 10.5448 8.76876 10.5586 9.10386C10.5623 9.19058 10.6171 9.29495 10.6794 9.35594C11.4588 10.1189 12.3504 10.6916 13.3462 11.0836C13.4042 11.1065 13.4661 11.118 13.5357 11.1374C13.6653 10.7438 13.788 10.3713 13.9157 9.984C13.142 9.71802 12.4172 9.39676 11.7354 8.9395C11.8625 8.72223 11.9805 8.52043 12.1035 8.31006C12.7669 8.72023 13.4281 9.05477 14.1561 9.26509C14.7046 7.61099 15.2459 5.97849 15.7844 4.35464ZM10.5643 3.5125C11.2876 2.78344 12.0971 2.26626 13.0485 1.89334C12.178 1.89334 11.3698 1.89334 10.5643 1.89334C10.5643 2.42987 10.5643 2.94823 10.5643 3.5125ZM10.5627 1.10949C11.9885 1.10949 13.3967 1.10949 14.8065 1.10949C14.8065 0.987211 14.8065 0.880707 14.8065 0.762245C13.3889 0.762245 11.9807 0.762245 10.5627 0.762245C10.5627 0.880144 10.5627 0.986711 10.5627 1.10949Z" fill="black"/>
</g>
<defs>
<clipPath id="clip0_96_12801">
<rect width="19.2" height="24" fill="white" transform="translate(0.600098)"/>
</clipPath>
</defs>
</svg>
