<svg width="20" height="24" viewBox="0 0 20 24" fill="none" xmlns="http://www.w3.org/2000/svg">
<path d="M17.768 0.0596836C17.4687 -0.0987685 16.9397 0.055978 16.6559 0.551493C16.383 1.02892 16.1088 1.76664 16.6151 3.14572C16.7664 3.55942 17.1816 4.49664 17.2787 5.46247C17.2058 6.23635 17.0878 7.00134 16.9282 7.74157C16.8752 7.63559 16.8322 7.52872 16.8004 7.42156C16.5702 6.64441 16.0837 6.02484 15.314 5.52769C14.8118 5.20323 14.3556 5.23169 14.0616 5.60669C13.8501 5.87676 13.7492 6.30898 13.777 6.8248C13.8531 8.19484 15.1456 9.09546 15.5403 9.33929C15.8291 9.51553 16.0846 9.72778 16.3015 9.97013C15.8214 11.3482 15.183 12.6527 14.4014 13.8527C14.3311 13.0594 13.83 11.9909 13.1693 11.6179C12.8493 11.4376 12.5112 11.4307 12.1918 11.597C12.04 11.676 11.9099 11.784 11.8049 11.9185C11.1329 12.7759 11.6113 14.4468 12.0685 15.1423C12.3283 15.5297 12.4869 15.9173 12.5781 16.1932C11.6226 17.2274 10.5334 18.1518 9.33623 18.9462C9.42754 18.5148 9.47971 17.9084 9.2516 17.3682C8.99057 16.7495 8.61349 16.3776 8.1909 16.3211C7.66648 16.2514 7.13702 16.6865 6.82308 17.4506C6.49625 18.2451 6.84161 19.6797 7.02853 20.2535C5.18832 21.1375 3.27281 21.7326 1.17617 22.0727C0.935011 22.1142 0.739797 22.3576 0.816874 22.5224C0.848743 22.591 0.945684 22.8003 1.32959 22.7428C2.66939 22.5421 4.01497 22.2111 5.33135 21.7583C5.6699 22.2968 6.304 23.1808 7.05654 23.6234C7.87148 24.1044 9.13895 24.1807 9.65566 23.5208C9.83219 23.2961 9.90082 23.0121 9.85858 22.6774C9.74667 21.7707 8.43103 21.2727 7.21232 21.0055C8.70732 20.3229 10.0837 19.4752 11.3107 18.4825C11.8606 18.9518 12.8437 19.7245 13.7532 20.1005C14.7098 20.4957 16.0222 20.493 16.5631 19.8035C16.7685 19.5413 16.838 19.2122 16.7694 18.8251C16.5356 17.4747 14.6375 17.2497 13.9229 17.165C13.8472 17.1559 13.7864 17.1492 13.7456 17.142C13.5337 17.1071 13.1637 17.1011 12.8286 17.1028C13.0761 16.8509 13.322 16.5844 13.5685 16.3005L13.6313 16.2482L13.6774 16.1736C14.3261 15.4132 14.9071 14.6053 15.4155 13.7565C15.812 13.9218 16.9825 14.3377 18.0548 14.0082C18.6121 13.8372 19.0961 13.5167 19.4173 13.107V13.1066C19.7718 12.6543 19.8922 12.1455 19.7395 11.7445C19.6137 11.415 19.3107 11.1921 18.8877 11.1169C18.0336 10.9647 17.2422 11.0504 16.619 11.3569C17.3304 9.64315 17.8279 7.37338 18.0191 5.48115C18.7316 4.30662 18.9442 3.49034 18.9278 2.36102C18.9112 1.20442 18.355 0.370955 17.768 0.0596836Z" fill="black"/>
</svg>
