<svg width="22" height="24" viewBox="0 0 22 24" fill="none" xmlns="http://www.w3.org/2000/svg">
<path d="M6.6001 19C6.6001 20.1046 5.25695 21 3.6001 21C1.94324 21 0.600098 20.1046 0.600098 19C0.600098 17.8954 1.94324 17 3.6001 17C5.25695 17 6.6001 17.8954 6.6001 19ZM6.6001 19V5L18.6001 3V17M18.6001 17C18.6001 18.1046 17.257 19 15.6001 19C13.9432 19 12.6001 18.1046 12.6001 17C12.6001 15.8954 13.9432 15 15.6001 15C17.257 15 18.6001 15.8954 18.6001 17ZM6.6001 9L18.6001 7" stroke="#404041" stroke-linecap="round" stroke-linejoin="round"/>
</svg>
