<svg width="25" height="24" viewBox="0 0 25 24" fill="none" xmlns="http://www.w3.org/2000/svg">
<g clip-path="url(#clip0_73_14444)">
<path d="M3.63417 14.5714C2.22412 12.7839 1.45718 10.5737 1.45703 8.29707V2.7085C3.80686 1.49253 6.41408 0.85791 9.05989 0.85791C11.7057 0.85791 14.3129 1.49253 16.6627 2.7085" stroke="#404041" stroke-linecap="round" stroke-linejoin="round"/>
<path d="M13.954 23.0399C13.3541 23.1754 12.7306 23.1669 12.1346 23.0149C11.5387 22.863 10.9872 22.5719 10.5255 22.1656C8.92133 20.7827 7.73346 18.9809 7.09467 16.9616C6.45588 14.9423 6.39136 12.7852 6.90832 10.7313L8.15975 5.72558C10.8777 5.03625 13.7243 5.03252 16.4441 5.71471C19.1639 6.39689 21.6717 7.74366 23.7426 9.63415L22.4912 14.6227C21.9867 16.6784 20.9215 18.5538 19.4142 20.0399C17.9069 21.526 16.0167 22.5645 13.954 23.0399Z" stroke="#404041" stroke-linecap="round" stroke-linejoin="round"/>
<path d="M10.2168 11.1598C10.4331 10.9335 10.7071 10.7707 11.0093 10.6891C11.3115 10.6076 11.6303 10.6103 11.9311 10.697C12.2255 10.7662 12.4963 10.9121 12.7161 11.1199C12.9359 11.3276 13.0968 11.5898 13.1825 11.8798M17.0054 12.857C17.2147 12.632 17.4807 12.4675 17.7754 12.3805C18.0701 12.2936 18.3828 12.2875 18.6807 12.3628C18.9786 12.4382 19.2508 12.5922 19.4688 12.8089C19.6867 13.0255 19.8425 13.2967 19.9197 13.5941" stroke="#404041" stroke-linecap="round" stroke-linejoin="round"/>
</g>
<defs>
<clipPath id="clip0_73_14444">
<rect width="24" height="24" fill="white" transform="translate(0.600098)"/>
</clipPath>
</defs>
</svg>
