<svg width="25" height="25" viewBox="0 0 25 25" fill="none" xmlns="http://www.w3.org/2000/svg">
<g clip-path="url(#clip0_149_13092)">
<path fill-rule="evenodd" clip-rule="evenodd" d="M23.95 6.448C24.116 5.902 23.95 5.5 23.155 5.5H20.53C19.862 5.5 19.554 5.847 19.387 6.23C19.387 6.23 18.052 9.426 16.161 11.502C15.549 12.104 15.271 12.295 14.937 12.295C14.77 12.295 14.519 12.104 14.519 11.557V6.448C14.519 5.792 14.335 5.5 13.779 5.5H9.651C9.234 5.5 8.983 5.804 8.983 6.093C8.983 6.714 9.929 6.858 10.026 8.606V12.404C10.026 13.237 9.873 13.388 9.539 13.388C8.649 13.388 6.484 10.177 5.199 6.503C4.95 5.788 4.698 5.5 4.027 5.5H1.4C0.65 5.5 0.5 5.847 0.5 6.23C0.5 6.912 1.39 10.3 4.645 14.781C6.815 17.841 9.87 19.5 12.653 19.5C14.322 19.5 14.528 19.132 14.528 18.497V16.184C14.528 15.447 14.686 15.3 15.215 15.3C15.605 15.3 16.272 15.492 17.83 16.967C19.61 18.716 19.903 19.5 20.905 19.5H23.53C24.28 19.5 24.656 19.132 24.44 18.404C24.202 17.68 23.352 16.629 22.225 15.382C21.613 14.672 20.695 13.907 20.416 13.524C20.027 13.033 20.138 12.814 20.416 12.377C20.416 12.377 23.616 7.951 23.949 6.448H23.95Z" fill="white"/>
</g>
<defs>
<clipPath id="clip0_149_13092">
<rect width="24" height="24" fill="white" transform="translate(0.5 0.5)"/>
</clipPath>
</defs>
</svg>
